<mxfile modified="2020-01-09T20:44:19.051Z" host="www.draw.io" agent="Mozilla/5.0 (Macintosh; Intel Mac OS X 10_15_2) AppleWebKit/537.36 (KHTML, like Gecko) Chrome/79.0.3945.117 Safari/537.36" etag="vLVXZcUO6-TyTu5JQCWl" version="12.5.1" type="github" pages="3">
  <diagram id="x-GXoumUO5DQMGYrBul2" name="Generale">
    <mxGraphModel dx="1613" dy="519" grid="1" gridSize="10" guides="1" tooltips="1" connect="1" arrows="1" fold="1" page="1" pageScale="1" pageWidth="827" pageHeight="1169" math="0" shadow="0">
      <root>
        <mxCell id="0"/>
        <mxCell id="1" parent="0"/>
        <mxCell id="YvR29Pg27sldjMJZo0AP-3" value="" style="rounded=0;whiteSpace=wrap;html=1;dashed=1;" parent="1" vertex="1">
          <mxGeometry x="10" y="151" width="480" height="429" as="geometry"/>
        </mxCell>
        <mxCell id="RN9INIxDvgJOFiBCgrXU-7" value="Data Contributor" style="shape=umlActor;verticalLabelPosition=bottom;labelBackgroundColor=#ffffff;verticalAlign=top;html=1;outlineConnect=0;" parent="1" vertex="1">
          <mxGeometry x="165" y="10.5" width="30" height="60" as="geometry"/>
        </mxCell>
        <mxCell id="RN9INIxDvgJOFiBCgrXU-9" value="CMS-like&lt;br&gt;Front End" style="rounded=0;whiteSpace=wrap;html=1;" parent="1" vertex="1">
          <mxGeometry x="130" y="181" width="100" height="50" as="geometry"/>
        </mxCell>
        <mxCell id="5JjlQ0Los4AuPIkOIIEd-3" value="&lt;span&gt;Content&lt;br&gt;(LDPC)&lt;/span&gt;" style="shape=cylinder;whiteSpace=wrap;html=1;boundedLbl=1;backgroundOutline=1;" parent="1" vertex="1">
          <mxGeometry x="173" y="311.5" width="90" height="60" as="geometry"/>
        </mxCell>
        <mxCell id="5JjlQ0Los4AuPIkOIIEd-5" value="&lt;span&gt;Metadata&lt;br&gt;(Triple Store)&lt;/span&gt;" style="shape=cylinder;whiteSpace=wrap;html=1;boundedLbl=1;backgroundOutline=1;" parent="1" vertex="1">
          <mxGeometry x="350" y="311.5" width="90" height="60" as="geometry"/>
        </mxCell>
        <mxCell id="5JjlQ0Los4AuPIkOIIEd-11" value="Generic User" style="shape=umlActor;verticalLabelPosition=bottom;labelBackgroundColor=#ffffff;verticalAlign=top;html=1;outlineConnect=0;" parent="1" vertex="1">
          <mxGeometry x="269" y="770" width="30" height="60" as="geometry"/>
        </mxCell>
        <mxCell id="5JjlQ0Los4AuPIkOIIEd-12" value="Domain Expert (e.g., Researcher)" style="shape=umlActor;verticalLabelPosition=bottom;labelBackgroundColor=#ffffff;verticalAlign=top;html=1;outlineConnect=0;" parent="1" vertex="1">
          <mxGeometry x="460.5" y="760" width="30" height="60" as="geometry"/>
        </mxCell>
        <mxCell id="5JjlQ0Los4AuPIkOIIEd-15" value="content (text, 3D model, GIS, ...) + metadata" style="shape=flexArrow;endArrow=classic;html=1;entryX=0.5;entryY=0;entryDx=0;entryDy=0;" parent="1" target="RN9INIxDvgJOFiBCgrXU-9" edge="1">
          <mxGeometry x="-0.2" width="50" height="50" relative="1" as="geometry">
            <mxPoint x="180" y="100" as="sourcePoint"/>
            <mxPoint x="-130" y="600" as="targetPoint"/>
            <Array as="points"/>
            <mxPoint as="offset"/>
          </mxGeometry>
        </mxCell>
        <mxCell id="5JjlQ0Los4AuPIkOIIEd-21" value="content" style="shape=flexArrow;endArrow=classic;html=1;entryX=0.25;entryY=0;entryDx=0;entryDy=0;exitX=0.5;exitY=1;exitDx=0;exitDy=0;" parent="1" source="5JjlQ0Los4AuPIkOIIEd-3" target="5JjlQ0Los4AuPIkOIIEd-8" edge="1">
          <mxGeometry x="-0.2" width="50" height="50" relative="1" as="geometry">
            <mxPoint x="155" y="250" as="sourcePoint"/>
            <mxPoint x="154" y="323" as="targetPoint"/>
            <Array as="points"/>
            <mxPoint as="offset"/>
          </mxGeometry>
        </mxCell>
        <mxCell id="5JjlQ0Los4AuPIkOIIEd-22" value="metadata&lt;br&gt;as RDF&lt;br&gt;" style="shape=flexArrow;endArrow=classic;html=1;entryX=0;entryY=0.5;entryDx=0;entryDy=0;exitX=1;exitY=0.5;exitDx=0;exitDy=0;" parent="1" source="5JjlQ0Los4AuPIkOIIEd-3" target="5JjlQ0Los4AuPIkOIIEd-5" edge="1">
          <mxGeometry x="-0.2" width="50" height="50" relative="1" as="geometry">
            <mxPoint x="218" y="250" as="sourcePoint"/>
            <mxPoint x="217" y="323" as="targetPoint"/>
            <Array as="points"/>
            <mxPoint as="offset"/>
          </mxGeometry>
        </mxCell>
        <mxCell id="5JjlQ0Los4AuPIkOIIEd-26" value="metadata&amp;nbsp;as RDF&lt;br&gt;" style="shape=flexArrow;endArrow=classic;html=1;entryX=0.75;entryY=0;entryDx=0;entryDy=0;exitX=0.5;exitY=1;exitDx=0;exitDy=0;" parent="1" source="5JjlQ0Los4AuPIkOIIEd-5" target="5JjlQ0Los4AuPIkOIIEd-8" edge="1">
          <mxGeometry x="-0.2" width="50" height="50" relative="1" as="geometry">
            <mxPoint x="489" y="580" as="sourcePoint"/>
            <mxPoint x="451" y="683" as="targetPoint"/>
            <Array as="points"/>
            <mxPoint as="offset"/>
          </mxGeometry>
        </mxCell>
        <mxCell id="5JjlQ0Los4AuPIkOIIEd-27" value="metadata as RDF&lt;br&gt;" style="shape=flexArrow;endArrow=classic;html=1;exitX=0.85;exitY=0.95;exitDx=0;exitDy=0;exitPerimeter=0;entryX=0.07;entryY=0.4;entryDx=0;entryDy=0;entryPerimeter=0;" parent="1" source="5JjlQ0Los4AuPIkOIIEd-5" target="5JjlQ0Los4AuPIkOIIEd-36" edge="1">
          <mxGeometry x="-0.2" width="50" height="50" relative="1" as="geometry">
            <mxPoint x="244" y="647" as="sourcePoint"/>
            <mxPoint x="580" y="614" as="targetPoint"/>
            <Array as="points"/>
            <mxPoint as="offset"/>
          </mxGeometry>
        </mxCell>
        <mxCell id="5JjlQ0Los4AuPIkOIIEd-28" value="" style="shape=flexArrow;endArrow=classic;startArrow=classic;html=1;entryX=0.25;entryY=1;entryDx=0;entryDy=0;" parent="1" target="5JjlQ0Los4AuPIkOIIEd-8" edge="1">
          <mxGeometry width="50" height="50" relative="1" as="geometry">
            <mxPoint x="282" y="760" as="sourcePoint"/>
            <mxPoint x="156" y="750" as="targetPoint"/>
          </mxGeometry>
        </mxCell>
        <mxCell id="5JjlQ0Los4AuPIkOIIEd-29" value="" style="shape=flexArrow;endArrow=classic;startArrow=classic;html=1;entryX=0.55;entryY=0.95;entryDx=0;entryDy=0;entryPerimeter=0;" parent="1" target="5JjlQ0Los4AuPIkOIIEd-31" edge="1">
          <mxGeometry width="50" height="50" relative="1" as="geometry">
            <mxPoint x="480" y="730" as="sourcePoint"/>
            <mxPoint x="530" y="454" as="targetPoint"/>
          </mxGeometry>
        </mxCell>
        <mxCell id="5JjlQ0Los4AuPIkOIIEd-41" value="" style="group" parent="1" vertex="1" connectable="0">
          <mxGeometry x="440" y="561" width="191" height="121" as="geometry"/>
        </mxCell>
        <mxCell id="5JjlQ0Los4AuPIkOIIEd-31" value="External Triple Stores" style="ellipse;shape=cloud;whiteSpace=wrap;html=1;" parent="5JjlQ0Los4AuPIkOIIEd-41" vertex="1">
          <mxGeometry width="180.54726368159203" height="100" as="geometry"/>
        </mxCell>
        <mxCell id="5JjlQ0Los4AuPIkOIIEd-32" value="" style="shape=cylinder;whiteSpace=wrap;html=1;boundedLbl=1;backgroundOutline=1;" parent="5JjlQ0Los4AuPIkOIIEd-41" vertex="1">
          <mxGeometry x="52.73880597014925" y="21" width="33.25870646766169" height="20" as="geometry"/>
        </mxCell>
        <mxCell id="5JjlQ0Los4AuPIkOIIEd-33" value="" style="shape=cylinder;whiteSpace=wrap;html=1;boundedLbl=1;backgroundOutline=1;" parent="5JjlQ0Los4AuPIkOIIEd-41" vertex="1">
          <mxGeometry x="76.4950248756219" y="62" width="33.25870646766169" height="20" as="geometry"/>
        </mxCell>
        <mxCell id="5JjlQ0Los4AuPIkOIIEd-34" value="" style="shape=cylinder;whiteSpace=wrap;html=1;boundedLbl=1;backgroundOutline=1;" parent="5JjlQ0Los4AuPIkOIIEd-41" vertex="1">
          <mxGeometry x="116.40547263681592" y="23" width="33.25870646766169" height="20" as="geometry"/>
        </mxCell>
        <mxCell id="5JjlQ0Los4AuPIkOIIEd-42" value="" style="shape=flexArrow;endArrow=classic;html=1;entryX=1;entryY=0.5;entryDx=0;entryDy=0;exitX=0.4;exitY=0.1;exitDx=0;exitDy=0;exitPerimeter=0;" parent="1" source="5JjlQ0Los4AuPIkOIIEd-31" target="5JjlQ0Los4AuPIkOIIEd-8" edge="1">
          <mxGeometry x="-0.2" width="50" height="50" relative="1" as="geometry">
            <mxPoint x="340" y="647" as="sourcePoint"/>
            <mxPoint x="326" y="770" as="targetPoint"/>
            <Array as="points"/>
            <mxPoint as="offset"/>
          </mxGeometry>
        </mxCell>
        <mxCell id="5JjlQ0Los4AuPIkOIIEd-44" value="" style="shape=flexArrow;endArrow=classic;html=1;entryX=0.16;entryY=0.55;entryDx=0;entryDy=0;entryPerimeter=0;exitX=0.875;exitY=0.5;exitDx=0;exitDy=0;exitPerimeter=0;" parent="1" source="5JjlQ0Los4AuPIkOIIEd-31" target="5JjlQ0Los4AuPIkOIIEd-36" edge="1">
          <mxGeometry x="-0.2" width="50" height="50" relative="1" as="geometry">
            <mxPoint x="688" y="550" as="sourcePoint"/>
            <mxPoint x="779" y="532" as="targetPoint"/>
            <Array as="points"/>
            <mxPoint as="offset"/>
          </mxGeometry>
        </mxCell>
        <mxCell id="5JjlQ0Los4AuPIkOIIEd-45" value="queries and manipulation" style="shape=flexArrow;endArrow=classic;startArrow=classic;html=1;entryX=0.13;entryY=0.77;entryDx=0;entryDy=0;entryPerimeter=0;" parent="1" target="5JjlQ0Los4AuPIkOIIEd-36" edge="1">
          <mxGeometry width="50" height="50" relative="1" as="geometry">
            <mxPoint x="510" y="750" as="sourcePoint"/>
            <mxPoint x="815" y="548" as="targetPoint"/>
          </mxGeometry>
        </mxCell>
        <mxCell id="5JjlQ0Los4AuPIkOIIEd-70" value="&lt;span&gt;Legacy Systems&lt;/span&gt;" style="shape=cylinder;whiteSpace=wrap;html=1;boundedLbl=1;backgroundOutline=1;" parent="1" vertex="1">
          <mxGeometry x="309" y="10.5" width="90" height="60" as="geometry"/>
        </mxCell>
        <mxCell id="5JjlQ0Los4AuPIkOIIEd-72" value="content&amp;nbsp;+ metadata as RDF" style="shape=flexArrow;endArrow=classic;html=1;entryX=0.15;entryY=0.05;entryDx=0;entryDy=0;exitX=0.5;exitY=1;exitDx=0;exitDy=0;entryPerimeter=0;" parent="1" source="RN9INIxDvgJOFiBCgrXU-9" target="5JjlQ0Los4AuPIkOIIEd-3" edge="1">
          <mxGeometry x="-0.2" width="50" height="50" relative="1" as="geometry">
            <mxPoint x="187" y="140" as="sourcePoint"/>
            <mxPoint x="187" y="200" as="targetPoint"/>
            <Array as="points"/>
            <mxPoint as="offset"/>
          </mxGeometry>
        </mxCell>
        <mxCell id="5JjlQ0Los4AuPIkOIIEd-73" value="content&amp;nbsp;+ metadata as RDF" style="shape=flexArrow;endArrow=classic;html=1;entryX=0.85;entryY=0.05;entryDx=0;entryDy=0;entryPerimeter=0;exitX=0.5;exitY=1;exitDx=0;exitDy=0;" parent="1" source="YvR29Pg27sldjMJZo0AP-5" target="5JjlQ0Los4AuPIkOIIEd-3" edge="1">
          <mxGeometry x="-0.2" width="50" height="50" relative="1" as="geometry">
            <mxPoint x="187" y="250" as="sourcePoint"/>
            <mxPoint x="187" y="320" as="targetPoint"/>
            <Array as="points"/>
            <mxPoint as="offset"/>
          </mxGeometry>
        </mxCell>
        <mxCell id="YvR29Pg27sldjMJZo0AP-4" value="Expert Data Contributor" style="shape=umlActor;verticalLabelPosition=bottom;labelBackgroundColor=#ffffff;verticalAlign=top;html=1;outlineConnect=0;" parent="1" vertex="1">
          <mxGeometry x="580" y="10.5" width="30" height="60" as="geometry"/>
        </mxCell>
        <mxCell id="YvR29Pg27sldjMJZo0AP-5" value="Data Adapter" style="rounded=0;whiteSpace=wrap;html=1;" parent="1" vertex="1">
          <mxGeometry x="306.5" y="181" width="100" height="50" as="geometry"/>
        </mxCell>
        <mxCell id="YvR29Pg27sldjMJZo0AP-6" value="data mapping" style="shape=flexArrow;endArrow=classic;html=1;entryX=1;entryY=0.5;entryDx=0;entryDy=0;" parent="1" target="YvR29Pg27sldjMJZo0AP-5" edge="1">
          <mxGeometry x="-0.2" width="50" height="50" relative="1" as="geometry">
            <mxPoint x="590" y="100" as="sourcePoint"/>
            <mxPoint x="301.5" y="599.5" as="targetPoint"/>
            <Array as="points"/>
            <mxPoint as="offset"/>
          </mxGeometry>
        </mxCell>
        <mxCell id="YvR29Pg27sldjMJZo0AP-7" value="content (text, 3D model, GIS, ...) + metadata" style="shape=flexArrow;endArrow=classic;html=1;entryX=0.5;entryY=0;entryDx=0;entryDy=0;exitX=0.5;exitY=1;exitDx=0;exitDy=0;" parent="1" source="5JjlQ0Los4AuPIkOIIEd-70" target="YvR29Pg27sldjMJZo0AP-5" edge="1">
          <mxGeometry x="-0.2" width="50" height="50" relative="1" as="geometry">
            <mxPoint x="190" y="140" as="sourcePoint"/>
            <mxPoint x="190" y="191" as="targetPoint"/>
            <Array as="points"/>
            <mxPoint as="offset"/>
          </mxGeometry>
        </mxCell>
        <mxCell id="YvR29Pg27sldjMJZo0AP-8" value="&lt;span&gt;Content Type vs View&amp;nbsp;&lt;br&gt;(Triple Store)&lt;/span&gt;" style="shape=cylinder;whiteSpace=wrap;html=1;boundedLbl=1;backgroundOutline=1;" parent="1" vertex="1">
          <mxGeometry x="20" y="400" width="126" height="60" as="geometry"/>
        </mxCell>
        <mxCell id="YvR29Pg27sldjMJZo0AP-9" value="&lt;span&gt;Data Views&lt;br&gt;(Triple Store)&lt;/span&gt;" style="shape=cylinder;whiteSpace=wrap;html=1;boundedLbl=1;backgroundOutline=1;" parent="1" vertex="1">
          <mxGeometry x="38" y="500" width="90" height="60" as="geometry"/>
        </mxCell>
        <mxCell id="YvR29Pg27sldjMJZo0AP-15" value="View = Data View + UI Component" style="text;html=1;strokeColor=none;fillColor=none;align=center;verticalAlign=middle;whiteSpace=wrap;rounded=0;" parent="1" vertex="1">
          <mxGeometry x="-1" y="470" width="230" height="20" as="geometry"/>
        </mxCell>
        <mxCell id="YvR29Pg27sldjMJZo0AP-18" value="" style="shape=flexArrow;endArrow=classic;html=1;entryX=0;entryY=0.25;entryDx=0;entryDy=0;exitX=1;exitY=0.5;exitDx=0;exitDy=0;" parent="1" source="YvR29Pg27sldjMJZo0AP-8" target="5JjlQ0Los4AuPIkOIIEd-8" edge="1">
          <mxGeometry x="-0.2" width="50" height="50" relative="1" as="geometry">
            <mxPoint x="197" y="379" as="sourcePoint"/>
            <mxPoint x="214" y="644" as="targetPoint"/>
            <Array as="points"/>
            <mxPoint as="offset"/>
          </mxGeometry>
        </mxCell>
        <mxCell id="YvR29Pg27sldjMJZo0AP-19" value="" style="shape=flexArrow;endArrow=classic;html=1;entryX=0;entryY=0.5;entryDx=0;entryDy=0;exitX=1;exitY=0.5;exitDx=0;exitDy=0;" parent="1" source="YvR29Pg27sldjMJZo0AP-9" target="5JjlQ0Los4AuPIkOIIEd-8" edge="1">
          <mxGeometry x="-0.2" width="50" height="50" relative="1" as="geometry">
            <mxPoint x="93" y="470" as="sourcePoint"/>
            <mxPoint x="156" y="671" as="targetPoint"/>
            <Array as="points"/>
            <mxPoint as="offset"/>
          </mxGeometry>
        </mxCell>
        <mxCell id="YvR29Pg27sldjMJZo0AP-20" value="" style="group" parent="1" vertex="1" connectable="0">
          <mxGeometry x="219" y="451" width="232" height="106" as="geometry"/>
        </mxCell>
        <mxCell id="5JjlQ0Los4AuPIkOIIEd-8" value="" style="rounded=0;whiteSpace=wrap;html=1;" parent="YvR29Pg27sldjMJZo0AP-20" vertex="1">
          <mxGeometry width="232" height="106" as="geometry"/>
        </mxCell>
        <mxCell id="YvR29Pg27sldjMJZo0AP-10" value="UI Comp. 1" style="rounded=0;whiteSpace=wrap;html=1;" parent="YvR29Pg27sldjMJZo0AP-20" vertex="1">
          <mxGeometry x="150" y="10" width="75" height="30" as="geometry"/>
        </mxCell>
        <mxCell id="YvR29Pg27sldjMJZo0AP-11" value="UI Comp. 2" style="rounded=0;whiteSpace=wrap;html=1;" parent="YvR29Pg27sldjMJZo0AP-20" vertex="1">
          <mxGeometry x="150" y="48" width="75" height="30" as="geometry"/>
        </mxCell>
        <mxCell id="YvR29Pg27sldjMJZo0AP-12" value="&lt;b&gt;...&lt;/b&gt;" style="text;html=1;strokeColor=none;fillColor=none;align=center;verticalAlign=middle;whiteSpace=wrap;rounded=0;" parent="YvR29Pg27sldjMJZo0AP-20" vertex="1">
          <mxGeometry x="135" y="78" width="40" height="20" as="geometry"/>
        </mxCell>
        <mxCell id="YvR29Pg27sldjMJZo0AP-13" value="Search/Explore&lt;br&gt;Dynamic Front End" style="text;html=1;strokeColor=none;fillColor=none;align=center;verticalAlign=middle;whiteSpace=wrap;rounded=0;" parent="YvR29Pg27sldjMJZo0AP-20" vertex="1">
          <mxGeometry x="10" y="40" width="120" height="20" as="geometry"/>
        </mxCell>
        <mxCell id="YvR29Pg27sldjMJZo0AP-21" value="" style="group" parent="1" vertex="1" connectable="0">
          <mxGeometry x="647" y="523" width="180" height="118" as="geometry"/>
        </mxCell>
        <mxCell id="5JjlQ0Los4AuPIkOIIEd-40" value="" style="group" parent="YvR29Pg27sldjMJZo0AP-21" vertex="1" connectable="0">
          <mxGeometry width="180" height="118" as="geometry"/>
        </mxCell>
        <mxCell id="5JjlQ0Los4AuPIkOIIEd-36" value="Semantic Web Tools" style="ellipse;shape=cloud;whiteSpace=wrap;html=1;" parent="5JjlQ0Los4AuPIkOIIEd-40" vertex="1">
          <mxGeometry width="180" height="118" as="geometry"/>
        </mxCell>
        <mxCell id="5JjlQ0Los4AuPIkOIIEd-37" value="" style="shape=mxgraph.bpmn.service_task;html=1;outlineConnect=0;" parent="5JjlQ0Los4AuPIkOIIEd-40" vertex="1">
          <mxGeometry x="66" y="21" width="24" height="27" as="geometry"/>
        </mxCell>
        <mxCell id="5JjlQ0Los4AuPIkOIIEd-38" value="" style="shape=mxgraph.bpmn.service_task;html=1;outlineConnect=0;" parent="5JjlQ0Los4AuPIkOIIEd-40" vertex="1">
          <mxGeometry x="115.5" y="67.5" width="24" height="27" as="geometry"/>
        </mxCell>
        <mxCell id="5JjlQ0Los4AuPIkOIIEd-39" value="" style="shape=mxgraph.bpmn.service_task;html=1;outlineConnect=0;" parent="5JjlQ0Los4AuPIkOIIEd-40" vertex="1">
          <mxGeometry x="66" y="69" width="24" height="27" as="geometry"/>
        </mxCell>
      </root>
    </mxGraphModel>
  </diagram>
  <diagram name="FrontEnd" id="crg5hubmsC4vo62N_QPQ">
    <mxGraphModel dx="786" dy="519" grid="1" gridSize="10" guides="1" tooltips="1" connect="1" arrows="1" fold="1" page="1" pageScale="1" pageWidth="827" pageHeight="1169" math="0" shadow="0">
      <root>
        <mxCell id="D3y_FtyfmB-T3tdHoMvv-0"/>
        <mxCell id="D3y_FtyfmB-T3tdHoMvv-1" parent="D3y_FtyfmB-T3tdHoMvv-0"/>
        <mxCell id="D3y_FtyfmB-T3tdHoMvv-51" value="" style="rounded=0;whiteSpace=wrap;html=1;dashed=1;" parent="D3y_FtyfmB-T3tdHoMvv-1" vertex="1">
          <mxGeometry x="11" y="410" width="580" height="200" as="geometry"/>
        </mxCell>
        <mxCell id="D3y_FtyfmB-T3tdHoMvv-2" value="" style="rounded=0;whiteSpace=wrap;html=1;dashed=1;" parent="D3y_FtyfmB-T3tdHoMvv-1" vertex="1">
          <mxGeometry x="11" y="280" width="580" height="92" as="geometry"/>
        </mxCell>
        <mxCell id="D3y_FtyfmB-T3tdHoMvv-5" value="&lt;span&gt;Content&lt;br&gt;Repository&lt;/span&gt;" style="shape=cylinder;whiteSpace=wrap;html=1;boundedLbl=1;backgroundOutline=1;" parent="D3y_FtyfmB-T3tdHoMvv-1" vertex="1">
          <mxGeometry x="267" y="293" width="90" height="60" as="geometry"/>
        </mxCell>
        <mxCell id="D3y_FtyfmB-T3tdHoMvv-6" value="&lt;span&gt;Metadata&lt;br&gt;Store&lt;/span&gt;" style="shape=cylinder;whiteSpace=wrap;html=1;boundedLbl=1;backgroundOutline=1;" parent="D3y_FtyfmB-T3tdHoMvv-1" vertex="1">
          <mxGeometry x="431" y="293" width="90" height="60" as="geometry"/>
        </mxCell>
        <mxCell id="D3y_FtyfmB-T3tdHoMvv-7" value="User" style="shape=umlActor;verticalLabelPosition=bottom;labelBackgroundColor=#ffffff;verticalAlign=top;html=1;outlineConnect=0;" parent="D3y_FtyfmB-T3tdHoMvv-1" vertex="1">
          <mxGeometry x="505" y="660" width="30" height="60" as="geometry"/>
        </mxCell>
        <mxCell id="D3y_FtyfmB-T3tdHoMvv-10" value="content" style="shape=flexArrow;endArrow=classic;html=1;entryX=0.25;entryY=0;entryDx=0;entryDy=0;exitX=0.5;exitY=1;exitDx=0;exitDy=0;" parent="D3y_FtyfmB-T3tdHoMvv-1" source="D3y_FtyfmB-T3tdHoMvv-5" target="D3y_FtyfmB-T3tdHoMvv-37" edge="1">
          <mxGeometry x="-0.2" width="50" height="50" relative="1" as="geometry">
            <mxPoint x="166" y="250" as="sourcePoint"/>
            <mxPoint x="165" y="323" as="targetPoint"/>
            <Array as="points"/>
            <mxPoint as="offset"/>
          </mxGeometry>
        </mxCell>
        <mxCell id="D3y_FtyfmB-T3tdHoMvv-12" value="metadata&amp;nbsp;as RDF&lt;br&gt;" style="shape=flexArrow;endArrow=classic;html=1;entryX=0.75;entryY=0;entryDx=0;entryDy=0;exitX=0.5;exitY=1;exitDx=0;exitDy=0;" parent="D3y_FtyfmB-T3tdHoMvv-1" source="D3y_FtyfmB-T3tdHoMvv-6" target="D3y_FtyfmB-T3tdHoMvv-37" edge="1">
          <mxGeometry x="-0.2" width="50" height="50" relative="1" as="geometry">
            <mxPoint x="500" y="580" as="sourcePoint"/>
            <mxPoint x="462" y="683" as="targetPoint"/>
            <Array as="points"/>
            <mxPoint as="offset"/>
          </mxGeometry>
        </mxCell>
        <mxCell id="D3y_FtyfmB-T3tdHoMvv-14" value="" style="shape=flexArrow;endArrow=classic;startArrow=classic;html=1;entryX=0.5;entryY=1;entryDx=0;entryDy=0;" parent="D3y_FtyfmB-T3tdHoMvv-1" target="D3y_FtyfmB-T3tdHoMvv-37" edge="1">
          <mxGeometry width="50" height="50" relative="1" as="geometry">
            <mxPoint x="500" y="660" as="sourcePoint"/>
            <mxPoint x="156" y="750" as="targetPoint"/>
          </mxGeometry>
        </mxCell>
        <mxCell id="D3y_FtyfmB-T3tdHoMvv-15" value="" style="shape=flexArrow;endArrow=classic;startArrow=classic;html=1;exitX=1;exitY=0.5;exitDx=0;exitDy=0;entryX=0.07;entryY=0.4;entryDx=0;entryDy=0;entryPerimeter=0;" parent="D3y_FtyfmB-T3tdHoMvv-1" source="D3y_FtyfmB-T3tdHoMvv-37" target="D3y_FtyfmB-T3tdHoMvv-44" edge="1">
          <mxGeometry width="50" height="50" relative="1" as="geometry">
            <mxPoint x="480" y="730" as="sourcePoint"/>
            <mxPoint x="610" y="510" as="targetPoint"/>
          </mxGeometry>
        </mxCell>
        <mxCell id="D3y_FtyfmB-T3tdHoMvv-16" value="" style="group" parent="D3y_FtyfmB-T3tdHoMvv-1" vertex="1" connectable="0">
          <mxGeometry x="620" y="284.5" width="191" height="121" as="geometry"/>
        </mxCell>
        <mxCell id="D3y_FtyfmB-T3tdHoMvv-17" value="External Data" style="ellipse;shape=cloud;whiteSpace=wrap;html=1;" parent="D3y_FtyfmB-T3tdHoMvv-16" vertex="1">
          <mxGeometry width="180.54726368159203" height="100" as="geometry"/>
        </mxCell>
        <mxCell id="D3y_FtyfmB-T3tdHoMvv-18" value="" style="shape=cylinder;whiteSpace=wrap;html=1;boundedLbl=1;backgroundOutline=1;" parent="D3y_FtyfmB-T3tdHoMvv-16" vertex="1">
          <mxGeometry x="52.73880597014925" y="21" width="33.25870646766169" height="20" as="geometry"/>
        </mxCell>
        <mxCell id="D3y_FtyfmB-T3tdHoMvv-19" value="" style="shape=cylinder;whiteSpace=wrap;html=1;boundedLbl=1;backgroundOutline=1;" parent="D3y_FtyfmB-T3tdHoMvv-16" vertex="1">
          <mxGeometry x="76.4950248756219" y="62" width="33.25870646766169" height="20" as="geometry"/>
        </mxCell>
        <mxCell id="D3y_FtyfmB-T3tdHoMvv-20" value="" style="shape=cylinder;whiteSpace=wrap;html=1;boundedLbl=1;backgroundOutline=1;" parent="D3y_FtyfmB-T3tdHoMvv-16" vertex="1">
          <mxGeometry x="116.40547263681592" y="23" width="33.25870646766169" height="20" as="geometry"/>
        </mxCell>
        <mxCell id="D3y_FtyfmB-T3tdHoMvv-22" value="" style="shape=flexArrow;endArrow=classic;html=1;entryX=0.4;entryY=0.1;entryDx=0;entryDy=0;entryPerimeter=0;exitX=0.55;exitY=0.95;exitDx=0;exitDy=0;exitPerimeter=0;" parent="D3y_FtyfmB-T3tdHoMvv-1" source="D3y_FtyfmB-T3tdHoMvv-17" target="D3y_FtyfmB-T3tdHoMvv-44" edge="1">
          <mxGeometry x="-0.2" width="50" height="50" relative="1" as="geometry">
            <mxPoint x="732" y="412.5" as="sourcePoint"/>
            <mxPoint x="855" y="544.5" as="targetPoint"/>
            <Array as="points"/>
            <mxPoint as="offset"/>
          </mxGeometry>
        </mxCell>
        <mxCell id="D3y_FtyfmB-T3tdHoMvv-23" value="" style="shape=flexArrow;endArrow=classic;startArrow=classic;html=1;entryX=0.31;entryY=0.8;entryDx=0;entryDy=0;entryPerimeter=0;" parent="D3y_FtyfmB-T3tdHoMvv-1" target="D3y_FtyfmB-T3tdHoMvv-44" edge="1">
          <mxGeometry width="50" height="50" relative="1" as="geometry">
            <mxPoint x="540" y="660" as="sourcePoint"/>
            <mxPoint x="815" y="548" as="targetPoint"/>
          </mxGeometry>
        </mxCell>
        <mxCell id="D3y_FtyfmB-T3tdHoMvv-31" value="&lt;span&gt;Content vs View&amp;nbsp;&lt;br&gt;Mapping Rules&lt;/span&gt;" style="shape=cylinder;whiteSpace=wrap;html=1;boundedLbl=1;backgroundOutline=1;" parent="D3y_FtyfmB-T3tdHoMvv-1" vertex="1">
          <mxGeometry x="31" y="430" width="126" height="60" as="geometry"/>
        </mxCell>
        <mxCell id="D3y_FtyfmB-T3tdHoMvv-32" value="&lt;span&gt;Data View&lt;br&gt;Definitions&lt;br&gt;&lt;/span&gt;" style="shape=cylinder;whiteSpace=wrap;html=1;boundedLbl=1;backgroundOutline=1;" parent="D3y_FtyfmB-T3tdHoMvv-1" vertex="1">
          <mxGeometry x="49" y="504" width="90" height="60" as="geometry"/>
        </mxCell>
        <mxCell id="D3y_FtyfmB-T3tdHoMvv-34" value="" style="shape=flexArrow;endArrow=classic;html=1;entryX=0;entryY=0.25;entryDx=0;entryDy=0;exitX=1;exitY=0.5;exitDx=0;exitDy=0;" parent="D3y_FtyfmB-T3tdHoMvv-1" source="D3y_FtyfmB-T3tdHoMvv-31" target="D3y_FtyfmB-T3tdHoMvv-37" edge="1">
          <mxGeometry x="-0.2" width="50" height="50" relative="1" as="geometry">
            <mxPoint x="208" y="379" as="sourcePoint"/>
            <mxPoint x="225" y="644" as="targetPoint"/>
            <Array as="points"/>
            <mxPoint as="offset"/>
          </mxGeometry>
        </mxCell>
        <mxCell id="D3y_FtyfmB-T3tdHoMvv-35" value="" style="shape=flexArrow;endArrow=classic;html=1;entryX=0;entryY=0.75;entryDx=0;entryDy=0;exitX=1;exitY=0.5;exitDx=0;exitDy=0;" parent="D3y_FtyfmB-T3tdHoMvv-1" source="D3y_FtyfmB-T3tdHoMvv-32" target="D3y_FtyfmB-T3tdHoMvv-37" edge="1">
          <mxGeometry x="-0.2" width="50" height="50" relative="1" as="geometry">
            <mxPoint x="104" y="470" as="sourcePoint"/>
            <mxPoint x="167" y="671" as="targetPoint"/>
            <Array as="points"/>
            <mxPoint as="offset"/>
          </mxGeometry>
        </mxCell>
        <mxCell id="D3y_FtyfmB-T3tdHoMvv-36" value="" style="group" parent="D3y_FtyfmB-T3tdHoMvv-1" vertex="1" connectable="0">
          <mxGeometry x="230" y="451" width="330" height="106" as="geometry"/>
        </mxCell>
        <mxCell id="D3y_FtyfmB-T3tdHoMvv-37" value="" style="rounded=0;whiteSpace=wrap;html=1;" parent="D3y_FtyfmB-T3tdHoMvv-36" vertex="1">
          <mxGeometry width="330" height="106" as="geometry"/>
        </mxCell>
        <mxCell id="D3y_FtyfmB-T3tdHoMvv-38" value="UI Comp. 1" style="rounded=0;whiteSpace=wrap;html=1;" parent="D3y_FtyfmB-T3tdHoMvv-36" vertex="1">
          <mxGeometry x="150" y="10" width="75" height="30" as="geometry"/>
        </mxCell>
        <mxCell id="D3y_FtyfmB-T3tdHoMvv-39" value="UI Comp. 2" style="rounded=0;whiteSpace=wrap;html=1;" parent="D3y_FtyfmB-T3tdHoMvv-36" vertex="1">
          <mxGeometry x="150" y="48" width="75" height="30" as="geometry"/>
        </mxCell>
        <mxCell id="D3y_FtyfmB-T3tdHoMvv-40" value="&lt;b&gt;...&lt;/b&gt;" style="text;html=1;strokeColor=none;fillColor=none;align=center;verticalAlign=middle;whiteSpace=wrap;rounded=0;" parent="D3y_FtyfmB-T3tdHoMvv-36" vertex="1">
          <mxGeometry x="135" y="78" width="40" height="20" as="geometry"/>
        </mxCell>
        <mxCell id="D3y_FtyfmB-T3tdHoMvv-41" value="Dynamic Mgmt of&lt;br&gt;Front End &amp;amp; Services" style="text;html=1;strokeColor=none;fillColor=none;align=center;verticalAlign=middle;whiteSpace=wrap;rounded=0;" parent="D3y_FtyfmB-T3tdHoMvv-36" vertex="1">
          <mxGeometry y="40" width="140" height="20" as="geometry"/>
        </mxCell>
        <mxCell id="D3y_FtyfmB-T3tdHoMvv-42" value="" style="group" parent="D3y_FtyfmB-T3tdHoMvv-1" vertex="1" connectable="0">
          <mxGeometry x="621" y="457.5" width="180" height="118" as="geometry"/>
        </mxCell>
        <mxCell id="D3y_FtyfmB-T3tdHoMvv-43" value="" style="group" parent="D3y_FtyfmB-T3tdHoMvv-42" vertex="1" connectable="0">
          <mxGeometry width="180" height="118" as="geometry"/>
        </mxCell>
        <mxCell id="D3y_FtyfmB-T3tdHoMvv-44" value="External Services" style="ellipse;shape=cloud;whiteSpace=wrap;html=1;" parent="D3y_FtyfmB-T3tdHoMvv-43" vertex="1">
          <mxGeometry width="180" height="118" as="geometry"/>
        </mxCell>
        <mxCell id="D3y_FtyfmB-T3tdHoMvv-45" value="" style="shape=mxgraph.bpmn.service_task;html=1;outlineConnect=0;" parent="D3y_FtyfmB-T3tdHoMvv-43" vertex="1">
          <mxGeometry x="66" y="21" width="24" height="27" as="geometry"/>
        </mxCell>
        <mxCell id="D3y_FtyfmB-T3tdHoMvv-46" value="" style="shape=mxgraph.bpmn.service_task;html=1;outlineConnect=0;" parent="D3y_FtyfmB-T3tdHoMvv-43" vertex="1">
          <mxGeometry x="115.5" y="67.5" width="24" height="27" as="geometry"/>
        </mxCell>
        <mxCell id="D3y_FtyfmB-T3tdHoMvv-47" value="" style="shape=mxgraph.bpmn.service_task;html=1;outlineConnect=0;" parent="D3y_FtyfmB-T3tdHoMvv-43" vertex="1">
          <mxGeometry x="66" y="69" width="24" height="27" as="geometry"/>
        </mxCell>
        <mxCell id="D3y_FtyfmB-T3tdHoMvv-52" value="&lt;b&gt;Digital Library&lt;/b&gt;" style="text;html=1;strokeColor=none;fillColor=none;align=left;verticalAlign=middle;whiteSpace=wrap;rounded=0;" parent="D3y_FtyfmB-T3tdHoMvv-1" vertex="1">
          <mxGeometry x="31" y="343" width="137" height="20" as="geometry"/>
        </mxCell>
        <mxCell id="D3y_FtyfmB-T3tdHoMvv-53" value="&lt;b&gt;Modular Front End&lt;/b&gt;" style="text;html=1;strokeColor=none;fillColor=none;align=left;verticalAlign=middle;whiteSpace=wrap;rounded=0;" parent="D3y_FtyfmB-T3tdHoMvv-1" vertex="1">
          <mxGeometry x="31" y="584" width="137" height="20" as="geometry"/>
        </mxCell>
        <mxCell id="D3y_FtyfmB-T3tdHoMvv-55" value="Service 1" style="rounded=0;whiteSpace=wrap;html=1;" parent="D3y_FtyfmB-T3tdHoMvv-1" vertex="1">
          <mxGeometry x="471" y="461" width="75" height="30" as="geometry"/>
        </mxCell>
        <mxCell id="D3y_FtyfmB-T3tdHoMvv-56" value="Service 2" style="rounded=0;whiteSpace=wrap;html=1;" parent="D3y_FtyfmB-T3tdHoMvv-1" vertex="1">
          <mxGeometry x="471" y="499" width="75" height="30" as="geometry"/>
        </mxCell>
        <mxCell id="D3y_FtyfmB-T3tdHoMvv-57" value="&lt;b&gt;...&lt;/b&gt;" style="text;html=1;strokeColor=none;fillColor=none;align=center;verticalAlign=middle;whiteSpace=wrap;rounded=0;" parent="D3y_FtyfmB-T3tdHoMvv-1" vertex="1">
          <mxGeometry x="456" y="529" width="40" height="20" as="geometry"/>
        </mxCell>
      </root>
    </mxGraphModel>
  </diagram>
  <diagram name="FrontEnd-UML" id="-ZeMDtbxsD3ha33s9aEE">
    <mxGraphModel dx="786" dy="519" grid="1" gridSize="10" guides="1" tooltips="1" connect="1" arrows="1" fold="1" page="1" pageScale="1" pageWidth="827" pageHeight="1169" math="0" shadow="0">
      <root>
        <mxCell id="8lwSTLrut1k7wmea1Iae-0"/>
        <mxCell id="8lwSTLrut1k7wmea1Iae-1" parent="8lwSTLrut1k7wmea1Iae-0"/>
        <mxCell id="8lwSTLrut1k7wmea1Iae-2" value="" style="rounded=0;whiteSpace=wrap;html=1;dashed=1;" vertex="1" parent="8lwSTLrut1k7wmea1Iae-1">
          <mxGeometry x="11" y="410" width="580" height="200" as="geometry"/>
        </mxCell>
        <mxCell id="8lwSTLrut1k7wmea1Iae-3" value="" style="rounded=0;whiteSpace=wrap;html=1;dashed=1;" vertex="1" parent="8lwSTLrut1k7wmea1Iae-1">
          <mxGeometry x="11" y="280" width="580" height="92" as="geometry"/>
        </mxCell>
        <mxCell id="8lwSTLrut1k7wmea1Iae-4" value="&lt;span&gt;Content&lt;br&gt;Repository&lt;/span&gt;" style="shape=cylinder;whiteSpace=wrap;html=1;boundedLbl=1;backgroundOutline=1;" vertex="1" parent="8lwSTLrut1k7wmea1Iae-1">
          <mxGeometry x="267" y="293" width="90" height="60" as="geometry"/>
        </mxCell>
        <mxCell id="8lwSTLrut1k7wmea1Iae-5" value="&lt;span&gt;Metadata&lt;br&gt;Store&lt;/span&gt;" style="shape=cylinder;whiteSpace=wrap;html=1;boundedLbl=1;backgroundOutline=1;" vertex="1" parent="8lwSTLrut1k7wmea1Iae-1">
          <mxGeometry x="431" y="293" width="90" height="60" as="geometry"/>
        </mxCell>
        <mxCell id="8lwSTLrut1k7wmea1Iae-6" value="User" style="shape=umlActor;verticalLabelPosition=bottom;labelBackgroundColor=#ffffff;verticalAlign=top;html=1;outlineConnect=0;" vertex="1" parent="8lwSTLrut1k7wmea1Iae-1">
          <mxGeometry x="505" y="660" width="30" height="60" as="geometry"/>
        </mxCell>
        <mxCell id="8lwSTLrut1k7wmea1Iae-7" value="content" style="shape=flexArrow;endArrow=classic;html=1;entryX=0.25;entryY=0;entryDx=0;entryDy=0;exitX=0.5;exitY=1;exitDx=0;exitDy=0;" edge="1" parent="8lwSTLrut1k7wmea1Iae-1" source="8lwSTLrut1k7wmea1Iae-4" target="8lwSTLrut1k7wmea1Iae-23">
          <mxGeometry x="-0.2" width="50" height="50" relative="1" as="geometry">
            <mxPoint x="166" y="250" as="sourcePoint"/>
            <mxPoint x="165" y="323" as="targetPoint"/>
            <Array as="points"/>
            <mxPoint as="offset"/>
          </mxGeometry>
        </mxCell>
        <mxCell id="8lwSTLrut1k7wmea1Iae-8" value="metadata&amp;nbsp;as RDF&lt;br&gt;" style="shape=flexArrow;endArrow=classic;html=1;entryX=0.75;entryY=0;entryDx=0;entryDy=0;exitX=0.5;exitY=1;exitDx=0;exitDy=0;" edge="1" parent="8lwSTLrut1k7wmea1Iae-1" source="8lwSTLrut1k7wmea1Iae-5" target="8lwSTLrut1k7wmea1Iae-23">
          <mxGeometry x="-0.2" width="50" height="50" relative="1" as="geometry">
            <mxPoint x="500" y="580" as="sourcePoint"/>
            <mxPoint x="462" y="683" as="targetPoint"/>
            <Array as="points"/>
            <mxPoint as="offset"/>
          </mxGeometry>
        </mxCell>
        <mxCell id="8lwSTLrut1k7wmea1Iae-9" value="" style="shape=flexArrow;endArrow=classic;startArrow=classic;html=1;entryX=0.5;entryY=1;entryDx=0;entryDy=0;" edge="1" parent="8lwSTLrut1k7wmea1Iae-1" target="8lwSTLrut1k7wmea1Iae-23">
          <mxGeometry width="50" height="50" relative="1" as="geometry">
            <mxPoint x="500" y="660" as="sourcePoint"/>
            <mxPoint x="156" y="750" as="targetPoint"/>
          </mxGeometry>
        </mxCell>
        <mxCell id="8lwSTLrut1k7wmea1Iae-10" value="" style="shape=flexArrow;endArrow=classic;startArrow=classic;html=1;exitX=1;exitY=0.5;exitDx=0;exitDy=0;entryX=0.07;entryY=0.4;entryDx=0;entryDy=0;entryPerimeter=0;" edge="1" parent="8lwSTLrut1k7wmea1Iae-1" source="8lwSTLrut1k7wmea1Iae-23" target="8lwSTLrut1k7wmea1Iae-30">
          <mxGeometry width="50" height="50" relative="1" as="geometry">
            <mxPoint x="480" y="730" as="sourcePoint"/>
            <mxPoint x="610" y="510" as="targetPoint"/>
          </mxGeometry>
        </mxCell>
        <mxCell id="8lwSTLrut1k7wmea1Iae-11" value="" style="group" vertex="1" connectable="0" parent="8lwSTLrut1k7wmea1Iae-1">
          <mxGeometry x="620" y="284.5" width="191" height="121" as="geometry"/>
        </mxCell>
        <mxCell id="8lwSTLrut1k7wmea1Iae-12" value="External Data" style="ellipse;shape=cloud;whiteSpace=wrap;html=1;" vertex="1" parent="8lwSTLrut1k7wmea1Iae-11">
          <mxGeometry width="180.54726368159203" height="100" as="geometry"/>
        </mxCell>
        <mxCell id="8lwSTLrut1k7wmea1Iae-13" value="" style="shape=cylinder;whiteSpace=wrap;html=1;boundedLbl=1;backgroundOutline=1;" vertex="1" parent="8lwSTLrut1k7wmea1Iae-11">
          <mxGeometry x="52.73880597014925" y="21" width="33.25870646766169" height="20" as="geometry"/>
        </mxCell>
        <mxCell id="8lwSTLrut1k7wmea1Iae-14" value="" style="shape=cylinder;whiteSpace=wrap;html=1;boundedLbl=1;backgroundOutline=1;" vertex="1" parent="8lwSTLrut1k7wmea1Iae-11">
          <mxGeometry x="76.4950248756219" y="62" width="33.25870646766169" height="20" as="geometry"/>
        </mxCell>
        <mxCell id="8lwSTLrut1k7wmea1Iae-15" value="" style="shape=cylinder;whiteSpace=wrap;html=1;boundedLbl=1;backgroundOutline=1;" vertex="1" parent="8lwSTLrut1k7wmea1Iae-11">
          <mxGeometry x="116.40547263681592" y="23" width="33.25870646766169" height="20" as="geometry"/>
        </mxCell>
        <mxCell id="8lwSTLrut1k7wmea1Iae-16" value="" style="shape=flexArrow;endArrow=classic;html=1;entryX=0.4;entryY=0.1;entryDx=0;entryDy=0;entryPerimeter=0;exitX=0.55;exitY=0.95;exitDx=0;exitDy=0;exitPerimeter=0;" edge="1" parent="8lwSTLrut1k7wmea1Iae-1" source="8lwSTLrut1k7wmea1Iae-12" target="8lwSTLrut1k7wmea1Iae-30">
          <mxGeometry x="-0.2" width="50" height="50" relative="1" as="geometry">
            <mxPoint x="732" y="412.5" as="sourcePoint"/>
            <mxPoint x="855" y="544.5" as="targetPoint"/>
            <Array as="points"/>
            <mxPoint as="offset"/>
          </mxGeometry>
        </mxCell>
        <mxCell id="8lwSTLrut1k7wmea1Iae-17" value="" style="shape=flexArrow;endArrow=classic;startArrow=classic;html=1;entryX=0.31;entryY=0.8;entryDx=0;entryDy=0;entryPerimeter=0;" edge="1" parent="8lwSTLrut1k7wmea1Iae-1" target="8lwSTLrut1k7wmea1Iae-30">
          <mxGeometry width="50" height="50" relative="1" as="geometry">
            <mxPoint x="540" y="660" as="sourcePoint"/>
            <mxPoint x="815" y="548" as="targetPoint"/>
          </mxGeometry>
        </mxCell>
        <mxCell id="8lwSTLrut1k7wmea1Iae-18" value="&lt;span&gt;Content vs View&amp;nbsp;&lt;br&gt;Mapping Rules&lt;/span&gt;" style="shape=cylinder;whiteSpace=wrap;html=1;boundedLbl=1;backgroundOutline=1;" vertex="1" parent="8lwSTLrut1k7wmea1Iae-1">
          <mxGeometry x="31" y="430" width="126" height="60" as="geometry"/>
        </mxCell>
        <mxCell id="8lwSTLrut1k7wmea1Iae-19" value="&lt;span&gt;Data View&lt;br&gt;Definitions&lt;br&gt;&lt;/span&gt;" style="shape=cylinder;whiteSpace=wrap;html=1;boundedLbl=1;backgroundOutline=1;" vertex="1" parent="8lwSTLrut1k7wmea1Iae-1">
          <mxGeometry x="49" y="504" width="90" height="60" as="geometry"/>
        </mxCell>
        <mxCell id="8lwSTLrut1k7wmea1Iae-20" value="" style="shape=flexArrow;endArrow=classic;html=1;entryX=0;entryY=0.25;entryDx=0;entryDy=0;exitX=1;exitY=0.5;exitDx=0;exitDy=0;" edge="1" parent="8lwSTLrut1k7wmea1Iae-1" source="8lwSTLrut1k7wmea1Iae-18" target="8lwSTLrut1k7wmea1Iae-23">
          <mxGeometry x="-0.2" width="50" height="50" relative="1" as="geometry">
            <mxPoint x="208" y="379" as="sourcePoint"/>
            <mxPoint x="225" y="644" as="targetPoint"/>
            <Array as="points"/>
            <mxPoint as="offset"/>
          </mxGeometry>
        </mxCell>
        <mxCell id="8lwSTLrut1k7wmea1Iae-21" value="" style="shape=flexArrow;endArrow=classic;html=1;entryX=0;entryY=0.75;entryDx=0;entryDy=0;exitX=1;exitY=0.5;exitDx=0;exitDy=0;" edge="1" parent="8lwSTLrut1k7wmea1Iae-1" source="8lwSTLrut1k7wmea1Iae-19" target="8lwSTLrut1k7wmea1Iae-23">
          <mxGeometry x="-0.2" width="50" height="50" relative="1" as="geometry">
            <mxPoint x="104" y="470" as="sourcePoint"/>
            <mxPoint x="167" y="671" as="targetPoint"/>
            <Array as="points"/>
            <mxPoint as="offset"/>
          </mxGeometry>
        </mxCell>
        <mxCell id="8lwSTLrut1k7wmea1Iae-22" value="" style="group" vertex="1" connectable="0" parent="8lwSTLrut1k7wmea1Iae-1">
          <mxGeometry x="230" y="451" width="330" height="106" as="geometry"/>
        </mxCell>
        <mxCell id="8lwSTLrut1k7wmea1Iae-23" value="" style="rounded=0;whiteSpace=wrap;html=1;" vertex="1" parent="8lwSTLrut1k7wmea1Iae-22">
          <mxGeometry width="330" height="106" as="geometry"/>
        </mxCell>
        <mxCell id="8lwSTLrut1k7wmea1Iae-24" value="UI Comp. 1" style="rounded=0;whiteSpace=wrap;html=1;" vertex="1" parent="8lwSTLrut1k7wmea1Iae-22">
          <mxGeometry x="150" y="10" width="75" height="30" as="geometry"/>
        </mxCell>
        <mxCell id="8lwSTLrut1k7wmea1Iae-25" value="UI Comp. 2" style="rounded=0;whiteSpace=wrap;html=1;" vertex="1" parent="8lwSTLrut1k7wmea1Iae-22">
          <mxGeometry x="150" y="48" width="75" height="30" as="geometry"/>
        </mxCell>
        <mxCell id="8lwSTLrut1k7wmea1Iae-26" value="&lt;b&gt;...&lt;/b&gt;" style="text;html=1;strokeColor=none;fillColor=none;align=center;verticalAlign=middle;whiteSpace=wrap;rounded=0;" vertex="1" parent="8lwSTLrut1k7wmea1Iae-22">
          <mxGeometry x="135" y="78" width="40" height="20" as="geometry"/>
        </mxCell>
        <mxCell id="8lwSTLrut1k7wmea1Iae-27" value="Dynamic Mgmt of&lt;br&gt;Front End &amp;amp; Services" style="text;html=1;strokeColor=none;fillColor=none;align=center;verticalAlign=middle;whiteSpace=wrap;rounded=0;" vertex="1" parent="8lwSTLrut1k7wmea1Iae-22">
          <mxGeometry y="40" width="140" height="20" as="geometry"/>
        </mxCell>
        <mxCell id="8lwSTLrut1k7wmea1Iae-28" value="" style="group" vertex="1" connectable="0" parent="8lwSTLrut1k7wmea1Iae-1">
          <mxGeometry x="621" y="457.5" width="180" height="118" as="geometry"/>
        </mxCell>
        <mxCell id="8lwSTLrut1k7wmea1Iae-29" value="" style="group" vertex="1" connectable="0" parent="8lwSTLrut1k7wmea1Iae-28">
          <mxGeometry width="180" height="118" as="geometry"/>
        </mxCell>
        <mxCell id="8lwSTLrut1k7wmea1Iae-30" value="External Services" style="ellipse;shape=cloud;whiteSpace=wrap;html=1;" vertex="1" parent="8lwSTLrut1k7wmea1Iae-29">
          <mxGeometry width="180" height="118" as="geometry"/>
        </mxCell>
        <mxCell id="8lwSTLrut1k7wmea1Iae-31" value="" style="shape=mxgraph.bpmn.service_task;html=1;outlineConnect=0;" vertex="1" parent="8lwSTLrut1k7wmea1Iae-29">
          <mxGeometry x="66" y="21" width="24" height="27" as="geometry"/>
        </mxCell>
        <mxCell id="8lwSTLrut1k7wmea1Iae-32" value="" style="shape=mxgraph.bpmn.service_task;html=1;outlineConnect=0;" vertex="1" parent="8lwSTLrut1k7wmea1Iae-29">
          <mxGeometry x="115.5" y="67.5" width="24" height="27" as="geometry"/>
        </mxCell>
        <mxCell id="8lwSTLrut1k7wmea1Iae-33" value="" style="shape=mxgraph.bpmn.service_task;html=1;outlineConnect=0;" vertex="1" parent="8lwSTLrut1k7wmea1Iae-29">
          <mxGeometry x="66" y="69" width="24" height="27" as="geometry"/>
        </mxCell>
        <mxCell id="8lwSTLrut1k7wmea1Iae-34" value="&lt;b&gt;Digital Library&lt;/b&gt;" style="text;html=1;strokeColor=none;fillColor=none;align=left;verticalAlign=middle;whiteSpace=wrap;rounded=0;" vertex="1" parent="8lwSTLrut1k7wmea1Iae-1">
          <mxGeometry x="31" y="343" width="137" height="20" as="geometry"/>
        </mxCell>
        <mxCell id="8lwSTLrut1k7wmea1Iae-35" value="&lt;b&gt;Modular Front End&lt;/b&gt;" style="text;html=1;strokeColor=none;fillColor=none;align=left;verticalAlign=middle;whiteSpace=wrap;rounded=0;" vertex="1" parent="8lwSTLrut1k7wmea1Iae-1">
          <mxGeometry x="31" y="584" width="137" height="20" as="geometry"/>
        </mxCell>
        <mxCell id="8lwSTLrut1k7wmea1Iae-36" value="Service 1" style="rounded=0;whiteSpace=wrap;html=1;" vertex="1" parent="8lwSTLrut1k7wmea1Iae-1">
          <mxGeometry x="471" y="461" width="75" height="30" as="geometry"/>
        </mxCell>
        <mxCell id="8lwSTLrut1k7wmea1Iae-37" value="Service 2" style="rounded=0;whiteSpace=wrap;html=1;" vertex="1" parent="8lwSTLrut1k7wmea1Iae-1">
          <mxGeometry x="471" y="499" width="75" height="30" as="geometry"/>
        </mxCell>
        <mxCell id="8lwSTLrut1k7wmea1Iae-38" value="&lt;b&gt;...&lt;/b&gt;" style="text;html=1;strokeColor=none;fillColor=none;align=center;verticalAlign=middle;whiteSpace=wrap;rounded=0;" vertex="1" parent="8lwSTLrut1k7wmea1Iae-1">
          <mxGeometry x="456" y="529" width="40" height="20" as="geometry"/>
        </mxCell>
        <mxCell id="8lwSTLrut1k7wmea1Iae-39" value="«component»&lt;br&gt;&lt;b&gt;Content Repository&lt;br&gt;(Digital Library)&lt;br&gt;&lt;/b&gt;" style="html=1;" vertex="1" parent="8lwSTLrut1k7wmea1Iae-1">
          <mxGeometry x="230" y="60" width="180" height="70" as="geometry"/>
        </mxCell>
        <mxCell id="8lwSTLrut1k7wmea1Iae-40" value="" style="shape=component;jettyWidth=8;jettyHeight=4;" vertex="1" parent="8lwSTLrut1k7wmea1Iae-39">
          <mxGeometry x="1" width="20" height="20" relative="1" as="geometry">
            <mxPoint x="-27" y="7" as="offset"/>
          </mxGeometry>
        </mxCell>
        <mxCell id="8lwSTLrut1k7wmea1Iae-41" value="" style="shape=providedRequiredInterface;html=1;verticalLabelPosition=bottom;direction=south;" vertex="1" parent="8lwSTLrut1k7wmea1Iae-1">
          <mxGeometry x="270" y="200" width="20" height="20" as="geometry"/>
        </mxCell>
        <mxCell id="8lwSTLrut1k7wmea1Iae-42" value="" style="shape=providedRequiredInterface;html=1;verticalLabelPosition=bottom;direction=south;" vertex="1" parent="8lwSTLrut1k7wmea1Iae-1">
          <mxGeometry x="350" y="200" width="20" height="20" as="geometry"/>
        </mxCell>
      </root>
    </mxGraphModel>
  </diagram>
</mxfile>
